%TF.GenerationSoftware,KiCad,Pcbnew,8.0.7*%
%TF.CreationDate,2025-01-07T20:01:39+01:00*%
%TF.ProjectId,keyboard,6b657962-6f61-4726-942e-6b696361645f,rev?*%
%TF.SameCoordinates,Original*%
%TF.FileFunction,Copper,L1,Top*%
%TF.FilePolarity,Positive*%
%FSLAX46Y46*%
G04 Gerber Fmt 4.6, Leading zero omitted, Abs format (unit mm)*
G04 Created by KiCad (PCBNEW 8.0.7) date 2025-01-07 20:01:39*
%MOMM*%
%LPD*%
G01*
G04 APERTURE LIST*
%TA.AperFunction,ComponentPad*%
%ADD10C,1.397000*%
%TD*%
%TA.AperFunction,ComponentPad*%
%ADD11R,1.700000X1.700000*%
%TD*%
%TA.AperFunction,ComponentPad*%
%ADD12O,1.700000X1.700000*%
%TD*%
%TA.AperFunction,Conductor*%
%ADD13C,1.000000*%
%TD*%
G04 APERTURE END LIST*
D10*
%TO.P,SW3,1,1*%
%TO.N,Net-(J1-Pin_3)*%
X54350000Y-45704000D03*
X61970000Y-45704000D03*
%TO.P,SW3,2,2*%
%TO.N,/5VB*%
X54350000Y-50784000D03*
X61970000Y-50784000D03*
%TD*%
%TO.P,SW2,1,1*%
%TO.N,Net-(J1-Pin_2)*%
X72644000Y-36830000D03*
X80264000Y-36830000D03*
%TO.P,SW2,2,2*%
%TO.N,/5VB*%
X72644000Y-41910000D03*
X80264000Y-41910000D03*
%TD*%
%TO.P,SW1,1,1*%
%TO.N,Net-(J1-Pin_1)*%
X54350000Y-27804000D03*
X61970000Y-27804000D03*
%TO.P,SW1,2,2*%
%TO.N,/5VB*%
X54350000Y-32884000D03*
X61970000Y-32884000D03*
%TD*%
D11*
%TO.P,J1,1,Pin_1*%
%TO.N,Net-(J1-Pin_1)*%
X46990000Y-35570000D03*
D12*
%TO.P,J1,2,Pin_2*%
%TO.N,Net-(J1-Pin_2)*%
X46990000Y-38110000D03*
%TO.P,J1,3,Pin_3*%
%TO.N,Net-(J1-Pin_3)*%
X46990000Y-40650000D03*
%TO.P,J1,4,Pin_4*%
%TO.N,/5VB*%
X46990000Y-43190000D03*
%TD*%
D13*
%TO.N,/5VB*%
X61970000Y-32884000D02*
X54350000Y-32884000D01*
X80890000Y-32884000D02*
X61970000Y-32884000D01*
X82042000Y-34036000D02*
X80890000Y-32884000D01*
X82042000Y-41402000D02*
X82042000Y-34036000D01*
X81534000Y-41910000D02*
X82042000Y-41402000D01*
X80264000Y-41910000D02*
X81534000Y-41910000D01*
X72644000Y-41910000D02*
X80264000Y-41910000D01*
X72644000Y-48768000D02*
X72644000Y-41910000D01*
X70628000Y-50784000D02*
X72644000Y-48768000D01*
X61970000Y-50784000D02*
X70628000Y-50784000D01*
X54350000Y-50784000D02*
X61970000Y-50784000D01*
X50054000Y-50784000D02*
X54350000Y-50784000D01*
X49530000Y-50292000D02*
X50038000Y-50800000D01*
X50038000Y-50800000D02*
X50054000Y-50784000D01*
X49530000Y-43688000D02*
X49530000Y-50292000D01*
X49032000Y-43190000D02*
X49530000Y-43688000D01*
X46990000Y-43190000D02*
X49032000Y-43190000D01*
%TD*%
%TA.AperFunction,NonConductor*%
G36*
X82493039Y-24911685D02*
G01*
X82538794Y-24964489D01*
X82550000Y-25016000D01*
X82550000Y-32829718D01*
X82530315Y-32896757D01*
X82477511Y-32942512D01*
X82408353Y-32952456D01*
X82344797Y-32923431D01*
X82338319Y-32917399D01*
X81671479Y-32250559D01*
X81671459Y-32250537D01*
X81527785Y-32106863D01*
X81527781Y-32106860D01*
X81363920Y-31997371D01*
X81363911Y-31997366D01*
X81291315Y-31967296D01*
X81235165Y-31944038D01*
X81181836Y-31921949D01*
X81181832Y-31921948D01*
X81181828Y-31921946D01*
X81085188Y-31902724D01*
X80988544Y-31883500D01*
X80988541Y-31883500D01*
X62667015Y-31883500D01*
X62601738Y-31864927D01*
X62506733Y-31806102D01*
X62506727Y-31806099D01*
X62399080Y-31764397D01*
X62299528Y-31725830D01*
X62081104Y-31685000D01*
X61858896Y-31685000D01*
X61640472Y-31725830D01*
X61590695Y-31745113D01*
X61433272Y-31806099D01*
X61433266Y-31806102D01*
X61338262Y-31864927D01*
X61272985Y-31883500D01*
X55047015Y-31883500D01*
X54981738Y-31864927D01*
X54886733Y-31806102D01*
X54886727Y-31806099D01*
X54779080Y-31764397D01*
X54679528Y-31725830D01*
X54461104Y-31685000D01*
X54238896Y-31685000D01*
X54020472Y-31725830D01*
X53970695Y-31745113D01*
X53813272Y-31806099D01*
X53813266Y-31806102D01*
X53624346Y-31923076D01*
X53624344Y-31923078D01*
X53460133Y-32072775D01*
X53326222Y-32250103D01*
X53227180Y-32449005D01*
X53227174Y-32449020D01*
X53166366Y-32662738D01*
X53166365Y-32662740D01*
X53145863Y-32883999D01*
X53145863Y-32884000D01*
X53166365Y-33105259D01*
X53166366Y-33105261D01*
X53227174Y-33318979D01*
X53227180Y-33318994D01*
X53326222Y-33517896D01*
X53460133Y-33695224D01*
X53624344Y-33844921D01*
X53624346Y-33844923D01*
X53813266Y-33961897D01*
X53813272Y-33961900D01*
X53842206Y-33973109D01*
X54020472Y-34042170D01*
X54238896Y-34083000D01*
X54238899Y-34083000D01*
X54461101Y-34083000D01*
X54461104Y-34083000D01*
X54679528Y-34042170D01*
X54886730Y-33961899D01*
X54979942Y-33904185D01*
X54981738Y-33903073D01*
X55047015Y-33884500D01*
X61272985Y-33884500D01*
X61338262Y-33903073D01*
X61433266Y-33961897D01*
X61433272Y-33961900D01*
X61462206Y-33973109D01*
X61640472Y-34042170D01*
X61858896Y-34083000D01*
X61858899Y-34083000D01*
X62081101Y-34083000D01*
X62081104Y-34083000D01*
X62299528Y-34042170D01*
X62506730Y-33961899D01*
X62599942Y-33904185D01*
X62601738Y-33903073D01*
X62667015Y-33884500D01*
X80424218Y-33884500D01*
X80491257Y-33904185D01*
X80511899Y-33920819D01*
X81005181Y-34414101D01*
X81038666Y-34475424D01*
X81041500Y-34501782D01*
X81041500Y-35678556D01*
X81021815Y-35745595D01*
X80969011Y-35791350D01*
X80899853Y-35801294D01*
X80852224Y-35783984D01*
X80800730Y-35752101D01*
X80800727Y-35752099D01*
X80693080Y-35710397D01*
X80593528Y-35671830D01*
X80375104Y-35631000D01*
X80152896Y-35631000D01*
X79934472Y-35671830D01*
X79884695Y-35691113D01*
X79727272Y-35752099D01*
X79727266Y-35752102D01*
X79538346Y-35869076D01*
X79538344Y-35869078D01*
X79374133Y-36018775D01*
X79240222Y-36196103D01*
X79141180Y-36395005D01*
X79141174Y-36395020D01*
X79080366Y-36608738D01*
X79080365Y-36608740D01*
X79059863Y-36829999D01*
X79059863Y-36830000D01*
X79080365Y-37051259D01*
X79080366Y-37051261D01*
X79141174Y-37264979D01*
X79141180Y-37264994D01*
X79240222Y-37463896D01*
X79374133Y-37641224D01*
X79538344Y-37790921D01*
X79538346Y-37790923D01*
X79727266Y-37907897D01*
X79727272Y-37907900D01*
X79756206Y-37919109D01*
X79934472Y-37988170D01*
X80152896Y-38029000D01*
X80152899Y-38029000D01*
X80375101Y-38029000D01*
X80375104Y-38029000D01*
X80593528Y-37988170D01*
X80800730Y-37907899D01*
X80852223Y-37876015D01*
X80919583Y-37857460D01*
X80986282Y-37878268D01*
X81031144Y-37931834D01*
X81041500Y-37981443D01*
X81041500Y-40758556D01*
X81021815Y-40825595D01*
X80969011Y-40871350D01*
X80899853Y-40881294D01*
X80852224Y-40863984D01*
X80800730Y-40832101D01*
X80800727Y-40832099D01*
X80693080Y-40790397D01*
X80593528Y-40751830D01*
X80375104Y-40711000D01*
X80152896Y-40711000D01*
X79934472Y-40751830D01*
X79884695Y-40771113D01*
X79727272Y-40832099D01*
X79727266Y-40832102D01*
X79632262Y-40890927D01*
X79566985Y-40909500D01*
X73341015Y-40909500D01*
X73275738Y-40890927D01*
X73180733Y-40832102D01*
X73180727Y-40832099D01*
X73073080Y-40790397D01*
X72973528Y-40751830D01*
X72755104Y-40711000D01*
X72532896Y-40711000D01*
X72314472Y-40751830D01*
X72264695Y-40771113D01*
X72107272Y-40832099D01*
X72107266Y-40832102D01*
X71918346Y-40949076D01*
X71918344Y-40949078D01*
X71754133Y-41098775D01*
X71620222Y-41276103D01*
X71521180Y-41475005D01*
X71521174Y-41475020D01*
X71460366Y-41688738D01*
X71460365Y-41688740D01*
X71439863Y-41909999D01*
X71439863Y-41910000D01*
X71460365Y-42131259D01*
X71460366Y-42131261D01*
X71521174Y-42344979D01*
X71521180Y-42344994D01*
X71620224Y-42543901D01*
X71623241Y-42548773D01*
X71621567Y-42549809D01*
X71643144Y-42606890D01*
X71643500Y-42616281D01*
X71643500Y-48302217D01*
X71623815Y-48369256D01*
X71607181Y-48389898D01*
X70249899Y-49747181D01*
X70188576Y-49780666D01*
X70162218Y-49783500D01*
X62667015Y-49783500D01*
X62601738Y-49764927D01*
X62506733Y-49706102D01*
X62506727Y-49706099D01*
X62399080Y-49664397D01*
X62299528Y-49625830D01*
X62081104Y-49585000D01*
X61858896Y-49585000D01*
X61640472Y-49625830D01*
X61590695Y-49645113D01*
X61433272Y-49706099D01*
X61433266Y-49706102D01*
X61338262Y-49764927D01*
X61272985Y-49783500D01*
X55047015Y-49783500D01*
X54981738Y-49764927D01*
X54886733Y-49706102D01*
X54886727Y-49706099D01*
X54779080Y-49664397D01*
X54679528Y-49625830D01*
X54461104Y-49585000D01*
X54238896Y-49585000D01*
X54020472Y-49625830D01*
X53970695Y-49645113D01*
X53813272Y-49706099D01*
X53813266Y-49706102D01*
X53718262Y-49764927D01*
X53652985Y-49783500D01*
X50654500Y-49783500D01*
X50587461Y-49763815D01*
X50541706Y-49711011D01*
X50530500Y-49659500D01*
X50530500Y-45703999D01*
X53145863Y-45703999D01*
X53145863Y-45704000D01*
X53166365Y-45925259D01*
X53166366Y-45925261D01*
X53227174Y-46138979D01*
X53227180Y-46138994D01*
X53326222Y-46337896D01*
X53460133Y-46515224D01*
X53624344Y-46664921D01*
X53624346Y-46664923D01*
X53813266Y-46781897D01*
X53813272Y-46781900D01*
X53842206Y-46793109D01*
X54020472Y-46862170D01*
X54238896Y-46903000D01*
X54238899Y-46903000D01*
X54461101Y-46903000D01*
X54461104Y-46903000D01*
X54679528Y-46862170D01*
X54886730Y-46781899D01*
X55075655Y-46664922D01*
X55239868Y-46515222D01*
X55373778Y-46337896D01*
X55472824Y-46138984D01*
X55533634Y-45925260D01*
X55554137Y-45704000D01*
X55554137Y-45703999D01*
X60765863Y-45703999D01*
X60765863Y-45704000D01*
X60786365Y-45925259D01*
X60786366Y-45925261D01*
X60847174Y-46138979D01*
X60847180Y-46138994D01*
X60946222Y-46337896D01*
X61080133Y-46515224D01*
X61244344Y-46664921D01*
X61244346Y-46664923D01*
X61433266Y-46781897D01*
X61433272Y-46781900D01*
X61462206Y-46793109D01*
X61640472Y-46862170D01*
X61858896Y-46903000D01*
X61858899Y-46903000D01*
X62081101Y-46903000D01*
X62081104Y-46903000D01*
X62299528Y-46862170D01*
X62506730Y-46781899D01*
X62695655Y-46664922D01*
X62859868Y-46515222D01*
X62993778Y-46337896D01*
X63092824Y-46138984D01*
X63153634Y-45925260D01*
X63174137Y-45704000D01*
X63153634Y-45482740D01*
X63092824Y-45269016D01*
X62993778Y-45070104D01*
X62859868Y-44892778D01*
X62859866Y-44892775D01*
X62695655Y-44743078D01*
X62695653Y-44743076D01*
X62506733Y-44626102D01*
X62506727Y-44626099D01*
X62399080Y-44584397D01*
X62299528Y-44545830D01*
X62081104Y-44505000D01*
X61858896Y-44505000D01*
X61640472Y-44545830D01*
X61590695Y-44565113D01*
X61433272Y-44626099D01*
X61433266Y-44626102D01*
X61244346Y-44743076D01*
X61244344Y-44743078D01*
X61080133Y-44892775D01*
X60946222Y-45070103D01*
X60847180Y-45269005D01*
X60847174Y-45269020D01*
X60786366Y-45482738D01*
X60786365Y-45482740D01*
X60765863Y-45703999D01*
X55554137Y-45703999D01*
X55533634Y-45482740D01*
X55472824Y-45269016D01*
X55373778Y-45070104D01*
X55239868Y-44892778D01*
X55239866Y-44892775D01*
X55075655Y-44743078D01*
X55075653Y-44743076D01*
X54886733Y-44626102D01*
X54886727Y-44626099D01*
X54779080Y-44584397D01*
X54679528Y-44545830D01*
X54461104Y-44505000D01*
X54238896Y-44505000D01*
X54020472Y-44545830D01*
X53970695Y-44565113D01*
X53813272Y-44626099D01*
X53813266Y-44626102D01*
X53624346Y-44743076D01*
X53624344Y-44743078D01*
X53460133Y-44892775D01*
X53326222Y-45070103D01*
X53227180Y-45269005D01*
X53227174Y-45269020D01*
X53166366Y-45482738D01*
X53166365Y-45482740D01*
X53145863Y-45703999D01*
X50530500Y-45703999D01*
X50530500Y-43589456D01*
X50492052Y-43396170D01*
X50492051Y-43396169D01*
X50492051Y-43396165D01*
X50492049Y-43396160D01*
X50416635Y-43214092D01*
X50416628Y-43214079D01*
X50307140Y-43050219D01*
X50244818Y-42987897D01*
X50167782Y-42910861D01*
X50167781Y-42910860D01*
X49816208Y-42559288D01*
X49816206Y-42559285D01*
X49816206Y-42559286D01*
X49809139Y-42552219D01*
X49809139Y-42552218D01*
X49669782Y-42412861D01*
X49669781Y-42412860D01*
X49669780Y-42412859D01*
X49505920Y-42303371D01*
X49505911Y-42303366D01*
X49433315Y-42273296D01*
X49377165Y-42250038D01*
X49323836Y-42227949D01*
X49323832Y-42227948D01*
X49323828Y-42227946D01*
X49227188Y-42208724D01*
X49130544Y-42189500D01*
X49130541Y-42189500D01*
X47950758Y-42189500D01*
X47883719Y-42169815D01*
X47863077Y-42153181D01*
X47861402Y-42151506D01*
X47861396Y-42151501D01*
X47675842Y-42021575D01*
X47632217Y-41966998D01*
X47625023Y-41897500D01*
X47656546Y-41835145D01*
X47675842Y-41818425D01*
X47698026Y-41802891D01*
X47861401Y-41688495D01*
X48028495Y-41521401D01*
X48164035Y-41327830D01*
X48263903Y-41113663D01*
X48325063Y-40885408D01*
X48345659Y-40650000D01*
X48325063Y-40414592D01*
X48263903Y-40186337D01*
X48164035Y-39972171D01*
X48028495Y-39778599D01*
X48028494Y-39778597D01*
X47861402Y-39611506D01*
X47861396Y-39611501D01*
X47675842Y-39481575D01*
X47632217Y-39426998D01*
X47625023Y-39357500D01*
X47656546Y-39295145D01*
X47675842Y-39278425D01*
X47698026Y-39262891D01*
X47861401Y-39148495D01*
X48028495Y-38981401D01*
X48164035Y-38787830D01*
X48263903Y-38573663D01*
X48325063Y-38345408D01*
X48345659Y-38110000D01*
X48325063Y-37874592D01*
X48263903Y-37646337D01*
X48164035Y-37432171D01*
X48046966Y-37264979D01*
X48028496Y-37238600D01*
X48028495Y-37238599D01*
X47906567Y-37116671D01*
X47873084Y-37055351D01*
X47878068Y-36985659D01*
X47919939Y-36929725D01*
X47950915Y-36912810D01*
X48082331Y-36863796D01*
X48127478Y-36829999D01*
X71439863Y-36829999D01*
X71439863Y-36830000D01*
X71460365Y-37051259D01*
X71460366Y-37051261D01*
X71521174Y-37264979D01*
X71521180Y-37264994D01*
X71620222Y-37463896D01*
X71754133Y-37641224D01*
X71918344Y-37790921D01*
X71918346Y-37790923D01*
X72107266Y-37907897D01*
X72107272Y-37907900D01*
X72136206Y-37919109D01*
X72314472Y-37988170D01*
X72532896Y-38029000D01*
X72532899Y-38029000D01*
X72755101Y-38029000D01*
X72755104Y-38029000D01*
X72973528Y-37988170D01*
X73180730Y-37907899D01*
X73369655Y-37790922D01*
X73509200Y-37663709D01*
X73533866Y-37641224D01*
X73533868Y-37641222D01*
X73667778Y-37463896D01*
X73766824Y-37264984D01*
X73827634Y-37051260D01*
X73848137Y-36830000D01*
X73843276Y-36777547D01*
X73827634Y-36608740D01*
X73827633Y-36608738D01*
X73787556Y-36467883D01*
X73766824Y-36395016D01*
X73667778Y-36196104D01*
X73533868Y-36018778D01*
X73533866Y-36018775D01*
X73369655Y-35869078D01*
X73369653Y-35869076D01*
X73180733Y-35752102D01*
X73180727Y-35752099D01*
X73073080Y-35710397D01*
X72973528Y-35671830D01*
X72755104Y-35631000D01*
X72532896Y-35631000D01*
X72314472Y-35671830D01*
X72264695Y-35691113D01*
X72107272Y-35752099D01*
X72107266Y-35752102D01*
X71918346Y-35869076D01*
X71918344Y-35869078D01*
X71754133Y-36018775D01*
X71620222Y-36196103D01*
X71521180Y-36395005D01*
X71521174Y-36395020D01*
X71460366Y-36608738D01*
X71460365Y-36608740D01*
X71439863Y-36829999D01*
X48127478Y-36829999D01*
X48197546Y-36777546D01*
X48283796Y-36662331D01*
X48334091Y-36527483D01*
X48340500Y-36467873D01*
X48340499Y-34672128D01*
X48334091Y-34612517D01*
X48283796Y-34477669D01*
X48283795Y-34477668D01*
X48283793Y-34477664D01*
X48197547Y-34362455D01*
X48197544Y-34362452D01*
X48082335Y-34276206D01*
X48082328Y-34276202D01*
X47947482Y-34225908D01*
X47947483Y-34225908D01*
X47887883Y-34219501D01*
X47887881Y-34219500D01*
X47887873Y-34219500D01*
X47887864Y-34219500D01*
X46092129Y-34219500D01*
X46092123Y-34219501D01*
X46032516Y-34225908D01*
X45897671Y-34276202D01*
X45897664Y-34276206D01*
X45782455Y-34362452D01*
X45782452Y-34362455D01*
X45696206Y-34477664D01*
X45696202Y-34477671D01*
X45645908Y-34612517D01*
X45639501Y-34672116D01*
X45639501Y-34672123D01*
X45639500Y-34672135D01*
X45639500Y-36467870D01*
X45639501Y-36467876D01*
X45645908Y-36527483D01*
X45696202Y-36662328D01*
X45696206Y-36662335D01*
X45782452Y-36777544D01*
X45782455Y-36777547D01*
X45897664Y-36863793D01*
X45897671Y-36863797D01*
X46029081Y-36912810D01*
X46085015Y-36954681D01*
X46109432Y-37020145D01*
X46094580Y-37088418D01*
X46073430Y-37116673D01*
X45951503Y-37238600D01*
X45815965Y-37432169D01*
X45815964Y-37432171D01*
X45716098Y-37646335D01*
X45716094Y-37646344D01*
X45654938Y-37874586D01*
X45654936Y-37874596D01*
X45634341Y-38109999D01*
X45634341Y-38110000D01*
X45654936Y-38345403D01*
X45654938Y-38345413D01*
X45716094Y-38573655D01*
X45716096Y-38573659D01*
X45716097Y-38573663D01*
X45815965Y-38787830D01*
X45815967Y-38787834D01*
X45951501Y-38981395D01*
X45951506Y-38981402D01*
X46118597Y-39148493D01*
X46118603Y-39148498D01*
X46304158Y-39278425D01*
X46347783Y-39333002D01*
X46354977Y-39402500D01*
X46323454Y-39464855D01*
X46304158Y-39481575D01*
X46118597Y-39611505D01*
X45951505Y-39778597D01*
X45815965Y-39972169D01*
X45815964Y-39972171D01*
X45716098Y-40186335D01*
X45716094Y-40186344D01*
X45654938Y-40414586D01*
X45654936Y-40414596D01*
X45634341Y-40649999D01*
X45634341Y-40650000D01*
X45654936Y-40885403D01*
X45654938Y-40885413D01*
X45716094Y-41113655D01*
X45716096Y-41113659D01*
X45716097Y-41113663D01*
X45791844Y-41276103D01*
X45815965Y-41327830D01*
X45815967Y-41327834D01*
X45951501Y-41521395D01*
X45951506Y-41521402D01*
X46118597Y-41688493D01*
X46118603Y-41688498D01*
X46304158Y-41818425D01*
X46347783Y-41873002D01*
X46354977Y-41942500D01*
X46323454Y-42004855D01*
X46304158Y-42021575D01*
X46118597Y-42151505D01*
X45951505Y-42318597D01*
X45815965Y-42512169D01*
X45815964Y-42512171D01*
X45716098Y-42726335D01*
X45716094Y-42726344D01*
X45654938Y-42954586D01*
X45654936Y-42954596D01*
X45634341Y-43189999D01*
X45634341Y-43190000D01*
X45654936Y-43425403D01*
X45654938Y-43425413D01*
X45716094Y-43653655D01*
X45716096Y-43653659D01*
X45716097Y-43653663D01*
X45815965Y-43867830D01*
X45815967Y-43867834D01*
X45924281Y-44022521D01*
X45951505Y-44061401D01*
X46118599Y-44228495D01*
X46215384Y-44296265D01*
X46312165Y-44364032D01*
X46312167Y-44364033D01*
X46312170Y-44364035D01*
X46526337Y-44463903D01*
X46754592Y-44525063D01*
X46942918Y-44541539D01*
X46989999Y-44545659D01*
X46990000Y-44545659D01*
X46990001Y-44545659D01*
X47029234Y-44542226D01*
X47225408Y-44525063D01*
X47453663Y-44463903D01*
X47667830Y-44364035D01*
X47861401Y-44228495D01*
X47863077Y-44226819D01*
X47863995Y-44226317D01*
X47865544Y-44225018D01*
X47865805Y-44225329D01*
X47924400Y-44193334D01*
X47950758Y-44190500D01*
X48405500Y-44190500D01*
X48472539Y-44210185D01*
X48518294Y-44262989D01*
X48529500Y-44314500D01*
X48529500Y-50390544D01*
X48564090Y-50564440D01*
X48567948Y-50583831D01*
X48567949Y-50583837D01*
X48643364Y-50765907D01*
X48643371Y-50765920D01*
X48752859Y-50929780D01*
X48752860Y-50929781D01*
X48752861Y-50929782D01*
X48892218Y-51069139D01*
X48892219Y-51069139D01*
X48899286Y-51076206D01*
X48899285Y-51076206D01*
X48899289Y-51076209D01*
X49400214Y-51577136D01*
X49400218Y-51577139D01*
X49564078Y-51686627D01*
X49564084Y-51686630D01*
X49564085Y-51686631D01*
X49746164Y-51762051D01*
X49939454Y-51800499D01*
X49939457Y-51800500D01*
X49939459Y-51800500D01*
X50136541Y-51800500D01*
X50172300Y-51793386D01*
X50204997Y-51786882D01*
X50229188Y-51784500D01*
X53652985Y-51784500D01*
X53718262Y-51803073D01*
X53813266Y-51861897D01*
X53813272Y-51861900D01*
X53842206Y-51873109D01*
X54020472Y-51942170D01*
X54238896Y-51983000D01*
X54238899Y-51983000D01*
X54461101Y-51983000D01*
X54461104Y-51983000D01*
X54679528Y-51942170D01*
X54886730Y-51861899D01*
X54916577Y-51843418D01*
X54981738Y-51803073D01*
X55047015Y-51784500D01*
X61272985Y-51784500D01*
X61338262Y-51803073D01*
X61433266Y-51861897D01*
X61433272Y-51861900D01*
X61462206Y-51873109D01*
X61640472Y-51942170D01*
X61858896Y-51983000D01*
X61858899Y-51983000D01*
X62081101Y-51983000D01*
X62081104Y-51983000D01*
X62299528Y-51942170D01*
X62506730Y-51861899D01*
X62536577Y-51843418D01*
X62601738Y-51803073D01*
X62667015Y-51784500D01*
X70726542Y-51784500D01*
X70745870Y-51780655D01*
X70823188Y-51765275D01*
X70919836Y-51746051D01*
X71007563Y-51709713D01*
X71007568Y-51709711D01*
X78913500Y-51709711D01*
X78913500Y-51922286D01*
X78946753Y-52132239D01*
X79012444Y-52334414D01*
X79108951Y-52523820D01*
X79233890Y-52695786D01*
X79384213Y-52846109D01*
X79556179Y-52971048D01*
X79556181Y-52971049D01*
X79556184Y-52971051D01*
X79745588Y-53067557D01*
X79947757Y-53133246D01*
X80157713Y-53166500D01*
X80157714Y-53166500D01*
X80370286Y-53166500D01*
X80370287Y-53166500D01*
X80580243Y-53133246D01*
X80782412Y-53067557D01*
X80971816Y-52971051D01*
X80993789Y-52955086D01*
X81143786Y-52846109D01*
X81143788Y-52846106D01*
X81143792Y-52846104D01*
X81294104Y-52695792D01*
X81294106Y-52695788D01*
X81294109Y-52695786D01*
X81419048Y-52523820D01*
X81419047Y-52523820D01*
X81419051Y-52523816D01*
X81515557Y-52334412D01*
X81581246Y-52132243D01*
X81614500Y-51922287D01*
X81614500Y-51709713D01*
X81610844Y-51686632D01*
X81581246Y-51499760D01*
X81581246Y-51499757D01*
X81515557Y-51297588D01*
X81419051Y-51108184D01*
X81419049Y-51108181D01*
X81419048Y-51108179D01*
X81294109Y-50936213D01*
X81143786Y-50785890D01*
X80971820Y-50660951D01*
X80782414Y-50564444D01*
X80782413Y-50564443D01*
X80782412Y-50564443D01*
X80580243Y-50498754D01*
X80580241Y-50498753D01*
X80580240Y-50498753D01*
X80418957Y-50473208D01*
X80370287Y-50465500D01*
X80157713Y-50465500D01*
X80109042Y-50473208D01*
X79947760Y-50498753D01*
X79745585Y-50564444D01*
X79556179Y-50660951D01*
X79384213Y-50785890D01*
X79233890Y-50936213D01*
X79108951Y-51108179D01*
X79012444Y-51297585D01*
X78946753Y-51499760D01*
X78913500Y-51709711D01*
X71007568Y-51709711D01*
X71101914Y-51670632D01*
X71265782Y-51561139D01*
X71405139Y-51421782D01*
X71405139Y-51421780D01*
X71415347Y-51411573D01*
X71415348Y-51411570D01*
X73421140Y-49405781D01*
X73530632Y-49241914D01*
X73606052Y-49059835D01*
X73644501Y-48866540D01*
X73644501Y-48669459D01*
X73644501Y-48664349D01*
X73644500Y-48664323D01*
X73644500Y-43034500D01*
X73664185Y-42967461D01*
X73716989Y-42921706D01*
X73768500Y-42910500D01*
X79566985Y-42910500D01*
X79632262Y-42929073D01*
X79727266Y-42987897D01*
X79727272Y-42987900D01*
X79756206Y-42999109D01*
X79934472Y-43068170D01*
X80152896Y-43109000D01*
X80152899Y-43109000D01*
X80375101Y-43109000D01*
X80375104Y-43109000D01*
X80593528Y-43068170D01*
X80800730Y-42987899D01*
X80833739Y-42967461D01*
X80895738Y-42929073D01*
X80961015Y-42910500D01*
X81632542Y-42910500D01*
X81651870Y-42906655D01*
X81729188Y-42891275D01*
X81825836Y-42872051D01*
X81879165Y-42849961D01*
X82007914Y-42796632D01*
X82171782Y-42687139D01*
X82311139Y-42547782D01*
X82311139Y-42547780D01*
X82321347Y-42537573D01*
X82321348Y-42537570D01*
X82338323Y-42520595D01*
X82399645Y-42487114D01*
X82469337Y-42492101D01*
X82525269Y-42533973D01*
X82549684Y-42599439D01*
X82550000Y-42608281D01*
X82550000Y-54232000D01*
X82530315Y-54299039D01*
X82477511Y-54344794D01*
X82426000Y-54356000D01*
X44828000Y-54356000D01*
X44760961Y-54336315D01*
X44715206Y-54283511D01*
X44704000Y-54232000D01*
X44704000Y-51709711D01*
X45639500Y-51709711D01*
X45639500Y-51922286D01*
X45672753Y-52132239D01*
X45738444Y-52334414D01*
X45834951Y-52523820D01*
X45959890Y-52695786D01*
X46110213Y-52846109D01*
X46282179Y-52971048D01*
X46282181Y-52971049D01*
X46282184Y-52971051D01*
X46471588Y-53067557D01*
X46673757Y-53133246D01*
X46883713Y-53166500D01*
X46883714Y-53166500D01*
X47096286Y-53166500D01*
X47096287Y-53166500D01*
X47306243Y-53133246D01*
X47508412Y-53067557D01*
X47697816Y-52971051D01*
X47719789Y-52955086D01*
X47869786Y-52846109D01*
X47869788Y-52846106D01*
X47869792Y-52846104D01*
X48020104Y-52695792D01*
X48020106Y-52695788D01*
X48020109Y-52695786D01*
X48145048Y-52523820D01*
X48145047Y-52523820D01*
X48145051Y-52523816D01*
X48241557Y-52334412D01*
X48307246Y-52132243D01*
X48340500Y-51922287D01*
X48340500Y-51709713D01*
X48336844Y-51686632D01*
X48307246Y-51499760D01*
X48307246Y-51499757D01*
X48241557Y-51297588D01*
X48145051Y-51108184D01*
X48145049Y-51108181D01*
X48145048Y-51108179D01*
X48020109Y-50936213D01*
X47869786Y-50785890D01*
X47697820Y-50660951D01*
X47508414Y-50564444D01*
X47508413Y-50564443D01*
X47508412Y-50564443D01*
X47306243Y-50498754D01*
X47306241Y-50498753D01*
X47306240Y-50498753D01*
X47144957Y-50473208D01*
X47096287Y-50465500D01*
X46883713Y-50465500D01*
X46835042Y-50473208D01*
X46673760Y-50498753D01*
X46471585Y-50564444D01*
X46282179Y-50660951D01*
X46110213Y-50785890D01*
X45959890Y-50936213D01*
X45834951Y-51108179D01*
X45738444Y-51297585D01*
X45672753Y-51499760D01*
X45639500Y-51709711D01*
X44704000Y-51709711D01*
X44704000Y-27023713D01*
X45639500Y-27023713D01*
X45639500Y-27236286D01*
X45660520Y-27369005D01*
X45672754Y-27446243D01*
X45688350Y-27494243D01*
X45738444Y-27648414D01*
X45834951Y-27837820D01*
X45959890Y-28009786D01*
X46110213Y-28160109D01*
X46282179Y-28285048D01*
X46282181Y-28285049D01*
X46282184Y-28285051D01*
X46471588Y-28381557D01*
X46673757Y-28447246D01*
X46883713Y-28480500D01*
X46883714Y-28480500D01*
X47096286Y-28480500D01*
X47096287Y-28480500D01*
X47306243Y-28447246D01*
X47508412Y-28381557D01*
X47697816Y-28285051D01*
X47719789Y-28269086D01*
X47869786Y-28160109D01*
X47869788Y-28160106D01*
X47869792Y-28160104D01*
X48020104Y-28009792D01*
X48020106Y-28009788D01*
X48020109Y-28009786D01*
X48145048Y-27837820D01*
X48145047Y-27837820D01*
X48145051Y-27837816D01*
X48162282Y-27803999D01*
X53145863Y-27803999D01*
X53145863Y-27804000D01*
X53166365Y-28025259D01*
X53166366Y-28025261D01*
X53227174Y-28238979D01*
X53227180Y-28238994D01*
X53326222Y-28437896D01*
X53460133Y-28615224D01*
X53624344Y-28764921D01*
X53624346Y-28764923D01*
X53813266Y-28881897D01*
X53813272Y-28881900D01*
X53842206Y-28893109D01*
X54020472Y-28962170D01*
X54238896Y-29003000D01*
X54238899Y-29003000D01*
X54461101Y-29003000D01*
X54461104Y-29003000D01*
X54679528Y-28962170D01*
X54886730Y-28881899D01*
X55075655Y-28764922D01*
X55239868Y-28615222D01*
X55373778Y-28437896D01*
X55472824Y-28238984D01*
X55533634Y-28025260D01*
X55554137Y-27804000D01*
X55554137Y-27803999D01*
X60765863Y-27803999D01*
X60765863Y-27804000D01*
X60786365Y-28025259D01*
X60786366Y-28025261D01*
X60847174Y-28238979D01*
X60847180Y-28238994D01*
X60946222Y-28437896D01*
X61080133Y-28615224D01*
X61244344Y-28764921D01*
X61244346Y-28764923D01*
X61433266Y-28881897D01*
X61433272Y-28881900D01*
X61462206Y-28893109D01*
X61640472Y-28962170D01*
X61858896Y-29003000D01*
X61858899Y-29003000D01*
X62081101Y-29003000D01*
X62081104Y-29003000D01*
X62299528Y-28962170D01*
X62506730Y-28881899D01*
X62695655Y-28764922D01*
X62859868Y-28615222D01*
X62993778Y-28437896D01*
X63092824Y-28238984D01*
X63153634Y-28025260D01*
X63174137Y-27804000D01*
X63159719Y-27648412D01*
X63153634Y-27582740D01*
X63153633Y-27582738D01*
X63092825Y-27369020D01*
X63092824Y-27369016D01*
X62993778Y-27170104D01*
X62919477Y-27071713D01*
X78913500Y-27071713D01*
X78913500Y-27284287D01*
X78946754Y-27494243D01*
X78996847Y-27648414D01*
X79012444Y-27696414D01*
X79108951Y-27885820D01*
X79233890Y-28057786D01*
X79384213Y-28208109D01*
X79556179Y-28333048D01*
X79556181Y-28333049D01*
X79556184Y-28333051D01*
X79745588Y-28429557D01*
X79947757Y-28495246D01*
X80157713Y-28528500D01*
X80157714Y-28528500D01*
X80370286Y-28528500D01*
X80370287Y-28528500D01*
X80580243Y-28495246D01*
X80782412Y-28429557D01*
X80971816Y-28333051D01*
X81037887Y-28285048D01*
X81143786Y-28208109D01*
X81143788Y-28208106D01*
X81143792Y-28208104D01*
X81294104Y-28057792D01*
X81294106Y-28057788D01*
X81294109Y-28057786D01*
X81419048Y-27885820D01*
X81419047Y-27885820D01*
X81419051Y-27885816D01*
X81515557Y-27696412D01*
X81581246Y-27494243D01*
X81614500Y-27284287D01*
X81614500Y-27071713D01*
X81581246Y-26861757D01*
X81515557Y-26659588D01*
X81419051Y-26470184D01*
X81419049Y-26470181D01*
X81419048Y-26470179D01*
X81294109Y-26298213D01*
X81143786Y-26147890D01*
X80971820Y-26022951D01*
X80782414Y-25926444D01*
X80782413Y-25926443D01*
X80782412Y-25926443D01*
X80580243Y-25860754D01*
X80580241Y-25860753D01*
X80580240Y-25860753D01*
X80418957Y-25835208D01*
X80370287Y-25827500D01*
X80157713Y-25827500D01*
X80109042Y-25835208D01*
X79947760Y-25860753D01*
X79745585Y-25926444D01*
X79556179Y-26022951D01*
X79384213Y-26147890D01*
X79233890Y-26298213D01*
X79108951Y-26470179D01*
X79012444Y-26659585D01*
X78946753Y-26861760D01*
X78913500Y-27071713D01*
X62919477Y-27071713D01*
X62859868Y-26992778D01*
X62859866Y-26992775D01*
X62695655Y-26843078D01*
X62695653Y-26843076D01*
X62506733Y-26726102D01*
X62506727Y-26726099D01*
X62399080Y-26684397D01*
X62299528Y-26645830D01*
X62081104Y-26605000D01*
X61858896Y-26605000D01*
X61640472Y-26645830D01*
X61604959Y-26659588D01*
X61433272Y-26726099D01*
X61433266Y-26726102D01*
X61244346Y-26843076D01*
X61244344Y-26843078D01*
X61080133Y-26992775D01*
X60946222Y-27170103D01*
X60847180Y-27369005D01*
X60847174Y-27369020D01*
X60786366Y-27582738D01*
X60786365Y-27582740D01*
X60765863Y-27803999D01*
X55554137Y-27803999D01*
X55539719Y-27648412D01*
X55533634Y-27582740D01*
X55533633Y-27582738D01*
X55472825Y-27369020D01*
X55472824Y-27369016D01*
X55373778Y-27170104D01*
X55239868Y-26992778D01*
X55239866Y-26992775D01*
X55075655Y-26843078D01*
X55075653Y-26843076D01*
X54886733Y-26726102D01*
X54886727Y-26726099D01*
X54779080Y-26684397D01*
X54679528Y-26645830D01*
X54461104Y-26605000D01*
X54238896Y-26605000D01*
X54020472Y-26645830D01*
X53984959Y-26659588D01*
X53813272Y-26726099D01*
X53813266Y-26726102D01*
X53624346Y-26843076D01*
X53624344Y-26843078D01*
X53460133Y-26992775D01*
X53326222Y-27170103D01*
X53227180Y-27369005D01*
X53227174Y-27369020D01*
X53166366Y-27582738D01*
X53166365Y-27582740D01*
X53145863Y-27803999D01*
X48162282Y-27803999D01*
X48241557Y-27648412D01*
X48307246Y-27446243D01*
X48340500Y-27236287D01*
X48340500Y-27023713D01*
X48307246Y-26813757D01*
X48241557Y-26611588D01*
X48145051Y-26422184D01*
X48145049Y-26422181D01*
X48145048Y-26422179D01*
X48020109Y-26250213D01*
X47869786Y-26099890D01*
X47697820Y-25974951D01*
X47508414Y-25878444D01*
X47508413Y-25878443D01*
X47508412Y-25878443D01*
X47306243Y-25812754D01*
X47306241Y-25812753D01*
X47306240Y-25812753D01*
X47144957Y-25787208D01*
X47096287Y-25779500D01*
X46883713Y-25779500D01*
X46835042Y-25787208D01*
X46673760Y-25812753D01*
X46471585Y-25878444D01*
X46282179Y-25974951D01*
X46110213Y-26099890D01*
X45959890Y-26250213D01*
X45834951Y-26422179D01*
X45738444Y-26611585D01*
X45672753Y-26813760D01*
X45639500Y-27023713D01*
X44704000Y-27023713D01*
X44704000Y-25016000D01*
X44723685Y-24948961D01*
X44776489Y-24903206D01*
X44828000Y-24892000D01*
X82426000Y-24892000D01*
X82493039Y-24911685D01*
G37*
%TD.AperFunction*%
M02*
