%TF.GenerationSoftware,KiCad,Pcbnew,8.0.7*%
%TF.CreationDate,2025-01-07T20:01:39+01:00*%
%TF.ProjectId,keyboard,6b657962-6f61-4726-942e-6b696361645f,rev?*%
%TF.SameCoordinates,Original*%
%TF.FileFunction,Legend,Top*%
%TF.FilePolarity,Positive*%
%FSLAX46Y46*%
G04 Gerber Fmt 4.6, Leading zero omitted, Abs format (unit mm)*
G04 Created by KiCad (PCBNEW 8.0.7) date 2025-01-07 20:01:39*
%MOMM*%
%LPD*%
G01*
G04 APERTURE LIST*
%ADD10C,0.150000*%
%ADD11C,0.120000*%
G04 APERTURE END LIST*
D10*
X56826667Y-44031200D02*
X56969524Y-44078819D01*
X56969524Y-44078819D02*
X57207619Y-44078819D01*
X57207619Y-44078819D02*
X57302857Y-44031200D01*
X57302857Y-44031200D02*
X57350476Y-43983580D01*
X57350476Y-43983580D02*
X57398095Y-43888342D01*
X57398095Y-43888342D02*
X57398095Y-43793104D01*
X57398095Y-43793104D02*
X57350476Y-43697866D01*
X57350476Y-43697866D02*
X57302857Y-43650247D01*
X57302857Y-43650247D02*
X57207619Y-43602628D01*
X57207619Y-43602628D02*
X57017143Y-43555009D01*
X57017143Y-43555009D02*
X56921905Y-43507390D01*
X56921905Y-43507390D02*
X56874286Y-43459771D01*
X56874286Y-43459771D02*
X56826667Y-43364533D01*
X56826667Y-43364533D02*
X56826667Y-43269295D01*
X56826667Y-43269295D02*
X56874286Y-43174057D01*
X56874286Y-43174057D02*
X56921905Y-43126438D01*
X56921905Y-43126438D02*
X57017143Y-43078819D01*
X57017143Y-43078819D02*
X57255238Y-43078819D01*
X57255238Y-43078819D02*
X57398095Y-43126438D01*
X57731429Y-43078819D02*
X57969524Y-44078819D01*
X57969524Y-44078819D02*
X58160000Y-43364533D01*
X58160000Y-43364533D02*
X58350476Y-44078819D01*
X58350476Y-44078819D02*
X58588572Y-43078819D01*
X58874286Y-43078819D02*
X59493333Y-43078819D01*
X59493333Y-43078819D02*
X59160000Y-43459771D01*
X59160000Y-43459771D02*
X59302857Y-43459771D01*
X59302857Y-43459771D02*
X59398095Y-43507390D01*
X59398095Y-43507390D02*
X59445714Y-43555009D01*
X59445714Y-43555009D02*
X59493333Y-43650247D01*
X59493333Y-43650247D02*
X59493333Y-43888342D01*
X59493333Y-43888342D02*
X59445714Y-43983580D01*
X59445714Y-43983580D02*
X59398095Y-44031200D01*
X59398095Y-44031200D02*
X59302857Y-44078819D01*
X59302857Y-44078819D02*
X59017143Y-44078819D01*
X59017143Y-44078819D02*
X58921905Y-44031200D01*
X58921905Y-44031200D02*
X58874286Y-43983580D01*
X75120667Y-35157200D02*
X75263524Y-35204819D01*
X75263524Y-35204819D02*
X75501619Y-35204819D01*
X75501619Y-35204819D02*
X75596857Y-35157200D01*
X75596857Y-35157200D02*
X75644476Y-35109580D01*
X75644476Y-35109580D02*
X75692095Y-35014342D01*
X75692095Y-35014342D02*
X75692095Y-34919104D01*
X75692095Y-34919104D02*
X75644476Y-34823866D01*
X75644476Y-34823866D02*
X75596857Y-34776247D01*
X75596857Y-34776247D02*
X75501619Y-34728628D01*
X75501619Y-34728628D02*
X75311143Y-34681009D01*
X75311143Y-34681009D02*
X75215905Y-34633390D01*
X75215905Y-34633390D02*
X75168286Y-34585771D01*
X75168286Y-34585771D02*
X75120667Y-34490533D01*
X75120667Y-34490533D02*
X75120667Y-34395295D01*
X75120667Y-34395295D02*
X75168286Y-34300057D01*
X75168286Y-34300057D02*
X75215905Y-34252438D01*
X75215905Y-34252438D02*
X75311143Y-34204819D01*
X75311143Y-34204819D02*
X75549238Y-34204819D01*
X75549238Y-34204819D02*
X75692095Y-34252438D01*
X76025429Y-34204819D02*
X76263524Y-35204819D01*
X76263524Y-35204819D02*
X76454000Y-34490533D01*
X76454000Y-34490533D02*
X76644476Y-35204819D01*
X76644476Y-35204819D02*
X76882572Y-34204819D01*
X77215905Y-34300057D02*
X77263524Y-34252438D01*
X77263524Y-34252438D02*
X77358762Y-34204819D01*
X77358762Y-34204819D02*
X77596857Y-34204819D01*
X77596857Y-34204819D02*
X77692095Y-34252438D01*
X77692095Y-34252438D02*
X77739714Y-34300057D01*
X77739714Y-34300057D02*
X77787333Y-34395295D01*
X77787333Y-34395295D02*
X77787333Y-34490533D01*
X77787333Y-34490533D02*
X77739714Y-34633390D01*
X77739714Y-34633390D02*
X77168286Y-35204819D01*
X77168286Y-35204819D02*
X77787333Y-35204819D01*
X56826667Y-26131200D02*
X56969524Y-26178819D01*
X56969524Y-26178819D02*
X57207619Y-26178819D01*
X57207619Y-26178819D02*
X57302857Y-26131200D01*
X57302857Y-26131200D02*
X57350476Y-26083580D01*
X57350476Y-26083580D02*
X57398095Y-25988342D01*
X57398095Y-25988342D02*
X57398095Y-25893104D01*
X57398095Y-25893104D02*
X57350476Y-25797866D01*
X57350476Y-25797866D02*
X57302857Y-25750247D01*
X57302857Y-25750247D02*
X57207619Y-25702628D01*
X57207619Y-25702628D02*
X57017143Y-25655009D01*
X57017143Y-25655009D02*
X56921905Y-25607390D01*
X56921905Y-25607390D02*
X56874286Y-25559771D01*
X56874286Y-25559771D02*
X56826667Y-25464533D01*
X56826667Y-25464533D02*
X56826667Y-25369295D01*
X56826667Y-25369295D02*
X56874286Y-25274057D01*
X56874286Y-25274057D02*
X56921905Y-25226438D01*
X56921905Y-25226438D02*
X57017143Y-25178819D01*
X57017143Y-25178819D02*
X57255238Y-25178819D01*
X57255238Y-25178819D02*
X57398095Y-25226438D01*
X57731429Y-25178819D02*
X57969524Y-26178819D01*
X57969524Y-26178819D02*
X58160000Y-25464533D01*
X58160000Y-25464533D02*
X58350476Y-26178819D01*
X58350476Y-26178819D02*
X58588572Y-25178819D01*
X59493333Y-26178819D02*
X58921905Y-26178819D01*
X59207619Y-26178819D02*
X59207619Y-25178819D01*
X59207619Y-25178819D02*
X59112381Y-25321676D01*
X59112381Y-25321676D02*
X59017143Y-25416914D01*
X59017143Y-25416914D02*
X58921905Y-25464533D01*
X46656666Y-32694819D02*
X46656666Y-33409104D01*
X46656666Y-33409104D02*
X46609047Y-33551961D01*
X46609047Y-33551961D02*
X46513809Y-33647200D01*
X46513809Y-33647200D02*
X46370952Y-33694819D01*
X46370952Y-33694819D02*
X46275714Y-33694819D01*
X47656666Y-33694819D02*
X47085238Y-33694819D01*
X47370952Y-33694819D02*
X47370952Y-32694819D01*
X47370952Y-32694819D02*
X47275714Y-32837676D01*
X47275714Y-32837676D02*
X47180476Y-32932914D01*
X47180476Y-32932914D02*
X47085238Y-32980533D01*
D11*
%TO.C,SW3*%
X54350000Y-44434000D02*
X54350000Y-44734000D01*
X54350000Y-44434000D02*
X61970000Y-44434000D01*
X54350000Y-46674000D02*
X54350000Y-49814000D01*
X54350000Y-51754000D02*
X54350000Y-52054000D01*
X61970000Y-44434000D02*
X61970000Y-44734000D01*
X61970000Y-46674000D02*
X61970000Y-49814000D01*
X61970000Y-51754000D02*
X61970000Y-52054000D01*
X61970000Y-52054000D02*
X54350000Y-52054000D01*
X60700000Y-48244000D02*
G75*
G02*
X55620000Y-48244000I-2540000J0D01*
G01*
X55620000Y-48244000D02*
G75*
G02*
X60700000Y-48244000I2540000J0D01*
G01*
%TO.C,SW2*%
X72644000Y-35560000D02*
X72644000Y-35860000D01*
X72644000Y-35560000D02*
X80264000Y-35560000D01*
X72644000Y-37800000D02*
X72644000Y-40940000D01*
X72644000Y-42880000D02*
X72644000Y-43180000D01*
X80264000Y-35560000D02*
X80264000Y-35860000D01*
X80264000Y-37800000D02*
X80264000Y-40940000D01*
X80264000Y-42880000D02*
X80264000Y-43180000D01*
X80264000Y-43180000D02*
X72644000Y-43180000D01*
X78994000Y-39370000D02*
G75*
G02*
X73914000Y-39370000I-2540000J0D01*
G01*
X73914000Y-39370000D02*
G75*
G02*
X78994000Y-39370000I2540000J0D01*
G01*
%TO.C,SW1*%
X54350000Y-26534000D02*
X54350000Y-26834000D01*
X54350000Y-26534000D02*
X61970000Y-26534000D01*
X54350000Y-28774000D02*
X54350000Y-31914000D01*
X54350000Y-33854000D02*
X54350000Y-34154000D01*
X61970000Y-26534000D02*
X61970000Y-26834000D01*
X61970000Y-28774000D02*
X61970000Y-31914000D01*
X61970000Y-33854000D02*
X61970000Y-34154000D01*
X61970000Y-34154000D02*
X54350000Y-34154000D01*
X60700000Y-30344000D02*
G75*
G02*
X55620000Y-30344000I-2540000J0D01*
G01*
X55620000Y-30344000D02*
G75*
G02*
X60700000Y-30344000I2540000J0D01*
G01*
%TO.C,J1*%
X45660000Y-34240000D02*
X46990000Y-34240000D01*
X45660000Y-35570000D02*
X45660000Y-34240000D01*
X45660000Y-36840000D02*
X45660000Y-44520000D01*
X45660000Y-36840000D02*
X48320000Y-36840000D01*
X45660000Y-44520000D02*
X48320000Y-44520000D01*
X48320000Y-36840000D02*
X48320000Y-44520000D01*
%TD*%
M02*
